<svg xmlns="http://www.w3.org/2000/svg" version="1.1" xmlns:xlink="http://www.w3.org/1999/xlink" xmlns:svgjs="http://svgjs.com/svgjs" width="500" height="500" preserveAspectRatio="none" viewBox="0 0 500 500"><g mask="url(&quot;#SvgjsMask1167&quot;)" fill="none"><rect width="500" height="500" x="0" y="0" fill="rgba(29, 29, 29, 1)"></rect><use xlink:href="#SvgjsPath1168" x="30" y="30" stroke="rgba(8, 111, 39, 1)"></use><use xlink:href="#SvgjsPath1168" x="30" y="90" stroke="rgba(8, 111, 39, 1)"></use><use xlink:href="#SvgjsPath1168" x="30" y="150" stroke="rgba(8, 111, 39, 1)"></use><use xlink:href="#SvgjsPath1169" x="30" y="210" stroke="rgba(8, 111, 39, 1)"></use><use xlink:href="#SvgjsPath1170" x="30" y="270" stroke="rgba(8, 111, 39, 1)"></use><use xlink:href="#SvgjsPath1171" x="30" y="330" stroke="rgba(8, 111, 39, 1)"></use><use xlink:href="#SvgjsPath1170" x="30" y="390" stroke="rgba(8, 111, 39, 1)"></use><use xlink:href="#SvgjsPath1168" x="30" y="450" stroke="rgba(8, 111, 39, 1)"></use><use xlink:href="#SvgjsPath1169" x="30" y="510" stroke="rgba(8, 111, 39, 1)"></use><use xlink:href="#SvgjsPath1168" x="90" y="30" stroke="rgba(8, 111, 39, 1)"></use><use xlink:href="#SvgjsPath1168" x="90" y="90" stroke="rgba(8, 111, 39, 1)"></use><use xlink:href="#SvgjsPath1170" x="90" y="150" stroke="rgba(8, 111, 39, 1)"></use><use xlink:href="#SvgjsPath1171" x="90" y="210" stroke="rgba(8, 111, 39, 1)"></use><use xlink:href="#SvgjsPath1172" x="90" y="270" stroke="rgba(8, 111, 39, 1)"></use><use xlink:href="#SvgjsPath1168" x="90" y="330" stroke="rgba(8, 111, 39, 1)"></use><use xlink:href="#SvgjsPath1168" x="90" y="390" stroke="rgba(8, 111, 39, 1)"></use><use xlink:href="#SvgjsPath1169" x="90" y="450" stroke="rgba(8, 111, 39, 1)"></use><use xlink:href="#SvgjsPath1170" x="90" y="510" stroke="rgba(8, 111, 39, 1)"></use><use xlink:href="#SvgjsPath1171" x="150" y="30" stroke="rgba(8, 111, 39, 1)"></use><use xlink:href="#SvgjsPath1168" x="150" y="90" stroke="rgba(8, 111, 39, 1)"></use><use xlink:href="#SvgjsPath1170" x="150" y="150" stroke="rgba(8, 111, 39, 1)"></use><use xlink:href="#SvgjsPath1170" x="150" y="210" stroke="rgba(8, 111, 39, 1)"></use><use xlink:href="#SvgjsPath1169" x="150" y="270" stroke="rgba(8, 111, 39, 1)"></use><use xlink:href="#SvgjsPath1169" x="150" y="330" stroke="rgba(8, 111, 39, 1)"></use><use xlink:href="#SvgjsPath1169" x="150" y="390" stroke="rgba(8, 111, 39, 1)"></use><use xlink:href="#SvgjsPath1171" x="150" y="450" stroke="rgba(8, 111, 39, 1)"></use><use xlink:href="#SvgjsPath1169" x="150" y="510" stroke="rgba(8, 111, 39, 1)"></use><use xlink:href="#SvgjsPath1168" x="210" y="30" stroke="rgba(8, 111, 39, 1)"></use><use xlink:href="#SvgjsPath1172" x="210" y="90" stroke="rgba(8, 111, 39, 1)"></use><use xlink:href="#SvgjsPath1172" x="210" y="150" stroke="rgba(8, 111, 39, 1)"></use><use xlink:href="#SvgjsPath1169" x="210" y="210" stroke="rgba(8, 111, 39, 1)"></use><use xlink:href="#SvgjsPath1168" x="210" y="270" stroke="rgba(8, 111, 39, 1)"></use><use xlink:href="#SvgjsPath1168" x="210" y="330" stroke="rgba(8, 111, 39, 1)"></use><use xlink:href="#SvgjsPath1169" x="210" y="390" stroke="rgba(8, 111, 39, 1)"></use><use xlink:href="#SvgjsPath1169" x="210" y="450" stroke="rgba(8, 111, 39, 1)"></use><use xlink:href="#SvgjsPath1168" x="210" y="510" stroke="rgba(8, 111, 39, 1)"></use><use xlink:href="#SvgjsPath1168" x="270" y="30" stroke="rgba(8, 111, 39, 1)"></use><use xlink:href="#SvgjsPath1170" x="270" y="90" stroke="rgba(8, 111, 39, 1)"></use><use xlink:href="#SvgjsPath1169" x="270" y="150" stroke="rgba(8, 111, 39, 1)"></use><use xlink:href="#SvgjsPath1169" x="270" y="210" stroke="rgba(8, 111, 39, 1)"></use><use xlink:href="#SvgjsPath1169" x="270" y="270" stroke="rgba(8, 111, 39, 1)"></use><use xlink:href="#SvgjsPath1168" x="270" y="330" stroke="rgba(8, 111, 39, 1)"></use><use xlink:href="#SvgjsPath1171" x="270" y="390" stroke="rgba(8, 111, 39, 1)"></use><use xlink:href="#SvgjsPath1171" x="270" y="450" stroke="rgba(8, 111, 39, 1)"></use><use xlink:href="#SvgjsPath1171" x="270" y="510" stroke="rgba(8, 111, 39, 1)"></use><use xlink:href="#SvgjsPath1169" x="330" y="30" stroke="rgba(8, 111, 39, 1)"></use><use xlink:href="#SvgjsPath1169" x="330" y="90" stroke="rgba(8, 111, 39, 1)"></use><use xlink:href="#SvgjsPath1169" x="330" y="150" stroke="rgba(8, 111, 39, 1)"></use><use xlink:href="#SvgjsPath1168" x="330" y="210" stroke="rgba(8, 111, 39, 1)"></use><use xlink:href="#SvgjsPath1172" x="330" y="270" stroke="rgba(8, 111, 39, 1)"></use><use xlink:href="#SvgjsPath1168" x="330" y="330" stroke="rgba(8, 111, 39, 1)"></use><use xlink:href="#SvgjsPath1168" x="330" y="390" stroke="rgba(8, 111, 39, 1)"></use><use xlink:href="#SvgjsPath1171" x="330" y="450" stroke="rgba(8, 111, 39, 1)"></use><use xlink:href="#SvgjsPath1171" x="330" y="510" stroke="rgba(8, 111, 39, 1)"></use><use xlink:href="#SvgjsPath1170" x="390" y="30" stroke="rgba(8, 111, 39, 1)"></use><use xlink:href="#SvgjsPath1169" x="390" y="90" stroke="rgba(8, 111, 39, 1)"></use><use xlink:href="#SvgjsPath1168" x="390" y="150" stroke="rgba(8, 111, 39, 1)"></use><use xlink:href="#SvgjsPath1170" x="390" y="210" stroke="rgba(8, 111, 39, 1)"></use><use xlink:href="#SvgjsPath1172" x="390" y="270" stroke="rgba(8, 111, 39, 1)"></use><use xlink:href="#SvgjsPath1170" x="390" y="330" stroke="rgba(8, 111, 39, 1)"></use><use xlink:href="#SvgjsPath1168" x="390" y="390" stroke="rgba(8, 111, 39, 1)"></use><use xlink:href="#SvgjsPath1168" x="390" y="450" stroke="rgba(8, 111, 39, 1)"></use><use xlink:href="#SvgjsPath1168" x="390" y="510" stroke="rgba(8, 111, 39, 1)"></use><use xlink:href="#SvgjsPath1168" x="450" y="30" stroke="rgba(8, 111, 39, 1)"></use><use xlink:href="#SvgjsPath1168" x="450" y="90" stroke="rgba(8, 111, 39, 1)"></use><use xlink:href="#SvgjsPath1169" x="450" y="150" stroke="rgba(8, 111, 39, 1)"></use><use xlink:href="#SvgjsPath1173" x="450" y="210" stroke="rgba(8, 111, 39, 1)" stroke-width="3"></use><use xlink:href="#SvgjsPath1173" x="450" y="270" stroke="rgba(8, 111, 39, 1)" stroke-width="3"></use><use xlink:href="#SvgjsPath1169" x="450" y="330" stroke="rgba(8, 111, 39, 1)"></use><use xlink:href="#SvgjsPath1171" x="450" y="390" stroke="rgba(8, 111, 39, 1)"></use><use xlink:href="#SvgjsPath1171" x="450" y="450" stroke="rgba(8, 111, 39, 1)"></use><use xlink:href="#SvgjsPath1172" x="450" y="510" stroke="rgba(8, 111, 39, 1)"></use><use xlink:href="#SvgjsPath1170" x="510" y="30" stroke="rgba(8, 111, 39, 1)"></use><use xlink:href="#SvgjsPath1169" x="510" y="90" stroke="rgba(8, 111, 39, 1)"></use><use xlink:href="#SvgjsPath1170" x="510" y="150" stroke="rgba(8, 111, 39, 1)"></use><use xlink:href="#SvgjsPath1172" x="510" y="210" stroke="rgba(8, 111, 39, 1)"></use><use xlink:href="#SvgjsPath1172" x="510" y="270" stroke="rgba(8, 111, 39, 1)"></use><use xlink:href="#SvgjsPath1171" x="510" y="330" stroke="rgba(8, 111, 39, 1)"></use><use xlink:href="#SvgjsPath1170" x="510" y="390" stroke="rgba(8, 111, 39, 1)"></use><use xlink:href="#SvgjsPath1172" x="510" y="450" stroke="rgba(8, 111, 39, 1)"></use><use xlink:href="#SvgjsPath1169" x="510" y="510" stroke="rgba(8, 111, 39, 1)"></use></g><defs><mask id="SvgjsMask1167"><rect width="500" height="500" fill="#ffffff"></rect></mask><path d="M-1 0 a1 1 0 1 0 2 0 a1 1 0 1 0 -2 0z" id="SvgjsPath1172"></path><path d="M-3 0 a3 3 0 1 0 6 0 a3 3 0 1 0 -6 0z" id="SvgjsPath1171"></path><path d="M-5 0 a5 5 0 1 0 10 0 a5 5 0 1 0 -10 0z" id="SvgjsPath1169"></path><path d="M2 -2 L-2 2z" id="SvgjsPath1170"></path><path d="M6 -6 L-6 6z" id="SvgjsPath1168"></path><path d="M30 -30 L-30 30z" id="SvgjsPath1173"></path></defs></svg>