<svg id="visual" viewBox="0 0 900 600" width="900" height="600" xmlns="http://www.w3.org/2000/svg" xmlns:xlink="http://www.w3.org/1999/xlink" version="1.1"><rect x="0" y="0" width="900" height="600" fill="#1a1a1a"></rect><path d="M389 0L511 0L511 86L493 86L493 171L389 171L389 257L335 257L335 343L357 343L357 429L379 429L379 514L327 514L327 600L0 600L0 514L0 514L0 429L0 429L0 343L0 343L0 257L0 257L0 171L0 171L0 86L0 86L0 0L0 0Z" fill="#004408"></path><path d="M224 0L382 0L382 86L276 86L276 171L337 171L337 257L285 257L285 343L237 343L237 429L304 429L304 514L357 514L357 600L0 600L0 514L0 514L0 429L0 429L0 343L0 343L0 257L0 257L0 171L0 171L0 86L0 86L0 0L0 0Z" fill="#062b0a"></path><path d="M129 0L132 0L132 86L91 86L91 171L183 171L183 257L104 257L104 343L93 343L93 429L98 429L98 514L226 514L226 600L0 600L0 514L0 514L0 429L0 429L0 343L0 343L0 257L0 257L0 171L0 171L0 86L0 86L0 0L0 0Z" fill="#001401"></path></svg>