<svg id="visual" viewBox="0 0 900 600" width="900" height="600" xmlns="http://www.w3.org/2000/svg" xmlns:xlink="http://www.w3.org/1999/xlink" version="1.1"><rect x="0" y="0" width="900" height="600" fill="#140021"></rect><path d="M407 0L449 0L449 86L353 86L353 171L444 171L444 257L377 257L377 343L429 343L429 429L395 429L395 514L382 514L382 600L0 600L0 514L0 514L0 429L0 429L0 343L0 343L0 257L0 257L0 171L0 171L0 86L0 86L0 0L0 0Z" fill="#0f0019"></path><path d="M280 0L232 0L232 86L210 86L210 171L312 171L312 257L350 257L350 343L238 343L238 429L297 429L297 514L256 514L256 600L0 600L0 514L0 514L0 429L0 429L0 343L0 343L0 257L0 257L0 171L0 171L0 86L0 86L0 0L0 0Z" fill="#1f0837"></path><path d="M136 0L86 0L86 86L212 86L212 171L158 171L158 257L168 257L168 343L82 343L82 429L204 429L204 514L142 514L142 600L0 600L0 514L0 514L0 429L0 429L0 343L0 343L0 257L0 257L0 171L0 171L0 86L0 86L0 0L0 0Z" fill="#330056"></path></svg>